<mxfile host="app.diagrams.net" modified="2023-11-04T08:30:29.539Z" agent="Mozilla/5.0 (Windows NT 10.0; Win64; x64; rv:109.0) Gecko/20100101 Firefox/119.0" etag="rhxOQtz1DksgGhRXxV7A" version="22.0.8" type="github">
  <diagram id="C5RBs43oDa-KdzZeNtuy" name="Page-1">
    <mxGraphModel dx="1500" dy="1484" grid="1" gridSize="10" guides="1" tooltips="1" connect="1" arrows="1" fold="1" page="1" pageScale="1" pageWidth="827" pageHeight="1169" math="0" shadow="0">
      <root>
        <mxCell id="WIyWlLk6GJQsqaUBKTNV-0" />
        <mxCell id="WIyWlLk6GJQsqaUBKTNV-1" parent="WIyWlLk6GJQsqaUBKTNV-0" />
        <mxCell id="G242f99MMeTT95p6bvFd-0" value="" style="endArrow=block;endSize=10;endFill=0;shadow=0;strokeWidth=1;rounded=0;edgeStyle=elbowEdgeStyle;elbow=vertical;entryX=0.5;entryY=1;entryDx=0;entryDy=0;exitX=0.5;exitY=0;exitDx=0;exitDy=0;" edge="1" parent="WIyWlLk6GJQsqaUBKTNV-1" source="G242f99MMeTT95p6bvFd-4" target="G242f99MMeTT95p6bvFd-1">
          <mxGeometry width="160" relative="1" as="geometry">
            <mxPoint x="525" y="1000" as="sourcePoint" />
            <mxPoint x="524.66" y="830" as="targetPoint" />
          </mxGeometry>
        </mxCell>
        <mxCell id="G242f99MMeTT95p6bvFd-1" value="&lt;p style=&quot;margin:0px;margin-top:4px;text-align:center;&quot;&gt;&lt;b&gt;BlockMinting&lt;/b&gt;&lt;/p&gt;&lt;p style=&quot;margin:0px;margin-top:4px;text-align:center;&quot;&gt;&lt;b&gt;(创建积木)&lt;br&gt;&lt;/b&gt;&lt;/p&gt;&lt;hr size=&quot;1&quot;&gt;&lt;p style=&quot;margin:0px;margin-left:4px;&quot;&gt;- PROMO_CREATION_LIMIT:uint256 = 5000&lt;br&gt;&lt;/p&gt;&lt;hr size=&quot;1&quot;&gt;&amp;nbsp;+ createPromoBlock(unit8, address): void" style="verticalAlign=top;align=left;overflow=fill;fontSize=12;fontFamily=Helvetica;html=1;whiteSpace=wrap;" vertex="1" parent="WIyWlLk6GJQsqaUBKTNV-1">
          <mxGeometry x="400" y="830" width="270" height="100" as="geometry" />
        </mxCell>
        <mxCell id="G242f99MMeTT95p6bvFd-2" value="" style="endArrow=block;endSize=10;endFill=0;shadow=0;strokeWidth=1;rounded=0;edgeStyle=elbowEdgeStyle;elbow=vertical;entryX=0.5;entryY=1;entryDx=0;entryDy=0;exitX=0.5;exitY=0;exitDx=0;exitDy=0;" edge="1" parent="WIyWlLk6GJQsqaUBKTNV-1" target="G242f99MMeTT95p6bvFd-10" source="G242f99MMeTT95p6bvFd-1">
          <mxGeometry width="160" relative="1" as="geometry">
            <mxPoint x="510" y="870" as="sourcePoint" />
            <mxPoint x="535.25" y="780" as="targetPoint" />
          </mxGeometry>
        </mxCell>
        <mxCell id="G242f99MMeTT95p6bvFd-3" value="" style="endArrow=block;endSize=10;endFill=0;shadow=0;strokeWidth=1;rounded=0;edgeStyle=elbowEdgeStyle;elbow=vertical;entryX=0.5;entryY=1;entryDx=0;entryDy=0;exitX=0.5;exitY=0;exitDx=0;exitDy=0;" edge="1" parent="WIyWlLk6GJQsqaUBKTNV-1" source="G242f99MMeTT95p6bvFd-23" target="G242f99MMeTT95p6bvFd-22">
          <mxGeometry width="160" relative="1" as="geometry">
            <mxPoint x="1000" y="180" as="sourcePoint" />
            <mxPoint x="1000" y="80" as="targetPoint" />
          </mxGeometry>
        </mxCell>
        <mxCell id="G242f99MMeTT95p6bvFd-4" value="&lt;p style=&quot;margin:0px;margin-top:4px;text-align:center;&quot;&gt;&lt;b&gt;BlockCore&lt;/b&gt;&lt;/p&gt;&lt;div align=&quot;center&quot;&gt;&lt;b&gt;(主协议)&lt;/b&gt;&lt;/div&gt;&lt;p style=&quot;margin:0px;margin-top:4px;text-align:center;text-decoration:underline;&quot;&gt;&lt;/p&gt;&lt;hr&gt;&amp;nbsp;+ getBlock(uint256): void&lt;br&gt;&lt;p style=&quot;margin:0px;margin-left:8px;&quot;&gt;&lt;/p&gt;" style="verticalAlign=top;align=left;overflow=fill;fontSize=12;fontFamily=Helvetica;html=1;whiteSpace=wrap;" vertex="1" parent="WIyWlLk6GJQsqaUBKTNV-1">
          <mxGeometry x="455" y="980" width="160" height="65" as="geometry" />
        </mxCell>
        <mxCell id="G242f99MMeTT95p6bvFd-6" value="&lt;p style=&quot;margin:0px;margin-top:4px;text-align:center;&quot;&gt;&lt;b&gt;BlockOwnership&lt;/b&gt;&lt;/p&gt;&lt;div align=&quot;center&quot;&gt;&lt;b&gt;(管理积木的归属与转移)&lt;/b&gt;&lt;/div&gt;&lt;p style=&quot;margin:0px;margin-top:4px;text-align:center;text-decoration:underline;&quot;&gt;&lt;/p&gt;&lt;hr&gt;&amp;nbsp;+ balanceOf(Address): uint256&lt;p style=&quot;margin:0px;margin-left:4px;&quot;&gt;+ transfer(address, uint256): void&lt;/p&gt;&lt;p style=&quot;margin:0px;margin-left:4px;&quot;&gt;+ approve(address, uint256): void&lt;/p&gt;&lt;p style=&quot;margin:0px;margin-left:4px;&quot;&gt;+ transferFrom(address, address, uint256): void&lt;br&gt;&lt;/p&gt;&lt;p style=&quot;margin:0px;margin-left:4px;&quot;&gt;+ totalSupply(): uint&lt;/p&gt;&lt;p style=&quot;margin:0px;margin-left:4px;&quot;&gt;+ ownerOf(uint256): address&lt;/p&gt;&amp;nbsp;+ tokenOfOwner(address): uint256[]&lt;p style=&quot;margin:0px;margin-left:8px;&quot;&gt;&lt;/p&gt;" style="verticalAlign=top;align=left;overflow=fill;fontSize=12;fontFamily=Helvetica;html=1;whiteSpace=wrap;" vertex="1" parent="WIyWlLk6GJQsqaUBKTNV-1">
          <mxGeometry x="400" y="450" width="270" height="150" as="geometry" />
        </mxCell>
        <mxCell id="G242f99MMeTT95p6bvFd-8" value="&lt;p style=&quot;margin:0px;margin-top:4px;text-align:center;&quot;&gt;&lt;b&gt;Auction&lt;/b&gt;&lt;br&gt;&lt;/p&gt;&lt;div align=&quot;center&quot;&gt;&lt;b&gt;(拍卖结构体)&lt;/b&gt;&lt;/div&gt;&lt;p style=&quot;margin:0px;margin-top:4px;text-align:center;text-decoration:underline;&quot;&gt;&lt;/p&gt;&lt;hr&gt;&lt;p style=&quot;margin:0px;margin-left:4px;&quot;&gt;+ seller: address&lt;/p&gt;&lt;p style=&quot;margin:0px;margin-left:4px;&quot;&gt;+ auctionPrice: uint256&lt;br&gt;&lt;/p&gt;&lt;p style=&quot;margin:0px;margin-left:8px;&quot;&gt;&lt;/p&gt;" style="verticalAlign=top;align=left;overflow=fill;fontSize=12;fontFamily=Helvetica;html=1;whiteSpace=wrap;" vertex="1" parent="WIyWlLk6GJQsqaUBKTNV-1">
          <mxGeometry x="1180" y="200" width="160" height="80" as="geometry" />
        </mxCell>
        <mxCell id="G242f99MMeTT95p6bvFd-9" value="" style="endArrow=block;endSize=10;endFill=0;shadow=0;strokeWidth=1;rounded=0;edgeStyle=elbowEdgeStyle;elbow=vertical;entryX=0.5;entryY=1;entryDx=0;entryDy=0;exitX=0.5;exitY=0;exitDx=0;exitDy=0;" edge="1" parent="WIyWlLk6GJQsqaUBKTNV-1" source="G242f99MMeTT95p6bvFd-10" target="G242f99MMeTT95p6bvFd-6">
          <mxGeometry width="160" relative="1" as="geometry">
            <mxPoint x="535" y="650" as="sourcePoint" />
            <mxPoint x="534.5" y="510" as="targetPoint" />
          </mxGeometry>
        </mxCell>
        <mxCell id="G242f99MMeTT95p6bvFd-10" value="&lt;p align=&quot;center&quot; style=&quot;margin: 4px 0px 0px;&quot;&gt;&lt;b&gt;BlockAuction&lt;/b&gt;&lt;/p&gt;&lt;div align=&quot;center&quot;&gt;&lt;b&gt;(对外提供拍卖能力)&lt;/b&gt;&lt;/div&gt;&lt;p style=&quot;margin:0px;margin-top:4px;text-align:center;text-decoration:underline;&quot;&gt;&lt;/p&gt;&lt;hr&gt;&lt;div&gt;&amp;nbsp;+setSaleAuctionAddress(address): void&lt;/div&gt;&lt;div&gt;&amp;nbsp;+ createSaleAuction(uint256, uint256): void&lt;/div&gt;&lt;div&gt;&amp;nbsp;+ withdrawAuctionBalance():void&lt;/div&gt;&lt;div&gt;&lt;br&gt;&lt;/div&gt;&lt;p style=&quot;margin:0px;margin-left:8px;&quot;&gt;&lt;/p&gt;" style="verticalAlign=top;align=left;overflow=fill;fontSize=12;fontFamily=Helvetica;html=1;whiteSpace=wrap;" vertex="1" parent="WIyWlLk6GJQsqaUBKTNV-1">
          <mxGeometry x="400" y="657.5" width="270" height="95" as="geometry" />
        </mxCell>
        <mxCell id="G242f99MMeTT95p6bvFd-13" value="&amp;lt;interface&amp;gt;&lt;br&gt;&lt;b&gt;ERC721&lt;/b&gt;" style="html=1;whiteSpace=wrap;" vertex="1" parent="WIyWlLk6GJQsqaUBKTNV-1">
          <mxGeometry x="180" y="500" width="110" height="50" as="geometry" />
        </mxCell>
        <mxCell id="G242f99MMeTT95p6bvFd-15" value="&lt;p style=&quot;margin:0px;margin-top:4px;text-align:center;&quot;&gt;&lt;b&gt;BlockBase&lt;/b&gt;&lt;/p&gt;&lt;div align=&quot;center&quot;&gt;&lt;b&gt;(定义了公共的结构体、事件、基本变量)&lt;/b&gt;&lt;/div&gt;&lt;p style=&quot;margin:0px;margin-top:4px;text-align:center;text-decoration:underline;&quot;&gt;&lt;/p&gt;&lt;hr&gt;&lt;p style=&quot;margin:0px;margin-left:4px;&quot;&gt;+ _transfer(address, address, uint256): void&lt;/p&gt;&lt;p style=&quot;margin:0px;margin-left:4px;&quot;&gt;+ _createBlock(uint8): void&lt;/p&gt;&lt;p style=&quot;margin:0px;margin-left:4px;&quot;&gt;+ _createRandomBlock(): void&lt;br&gt;&lt;/p&gt;&lt;p style=&quot;margin:0px;margin-left:8px;&quot;&gt;&lt;/p&gt;" style="verticalAlign=top;align=left;overflow=fill;fontSize=12;fontFamily=Helvetica;html=1;whiteSpace=wrap;" vertex="1" parent="WIyWlLk6GJQsqaUBKTNV-1">
          <mxGeometry x="400" y="290" width="270" height="90" as="geometry" />
        </mxCell>
        <mxCell id="G242f99MMeTT95p6bvFd-17" value="" style="endArrow=block;endSize=10;endFill=0;shadow=0;strokeWidth=1;rounded=0;edgeStyle=elbowEdgeStyle;elbow=vertical;entryX=0.5;entryY=1;entryDx=0;entryDy=0;exitX=0.5;exitY=0;exitDx=0;exitDy=0;" edge="1" parent="WIyWlLk6GJQsqaUBKTNV-1" source="G242f99MMeTT95p6bvFd-6" target="G242f99MMeTT95p6bvFd-15">
          <mxGeometry width="160" relative="1" as="geometry">
            <mxPoint x="890" y="530" as="sourcePoint" />
            <mxPoint x="890" y="430" as="targetPoint" />
          </mxGeometry>
        </mxCell>
        <mxCell id="G242f99MMeTT95p6bvFd-18" value="&lt;p style=&quot;margin:0px;margin-top:4px;text-align:center;&quot;&gt;&lt;b&gt;BlockAccessControl&lt;/b&gt;&lt;/p&gt;&lt;div align=&quot;center&quot;&gt;&lt;b&gt;(定义了CEO的基本权限和管理功能)&lt;/b&gt;&lt;/div&gt;&lt;p style=&quot;margin:0px;margin-top:4px;text-align:center;text-decoration:underline;&quot;&gt;&lt;/p&gt;&lt;hr&gt;&lt;p style=&quot;margin:0px;margin-left:4px;&quot;&gt;+ pause(): void&lt;/p&gt;&lt;p style=&quot;margin:0px;margin-left:4px;&quot;&gt;+ unpause(): void&lt;br&gt;&lt;/p&gt;&lt;p style=&quot;margin:0px;margin-left:8px;&quot;&gt;&lt;/p&gt;" style="verticalAlign=top;align=left;overflow=fill;fontSize=12;fontFamily=Helvetica;html=1;whiteSpace=wrap;" vertex="1" parent="WIyWlLk6GJQsqaUBKTNV-1">
          <mxGeometry x="400" y="150" width="270" height="80" as="geometry" />
        </mxCell>
        <mxCell id="G242f99MMeTT95p6bvFd-19" value="&lt;p style=&quot;margin:0px;margin-top:4px;text-align:center;&quot;&gt;&lt;b&gt;Block&lt;/b&gt;&lt;/p&gt;&lt;div align=&quot;center&quot;&gt;&lt;b&gt;(积木结构体)&lt;/b&gt;&lt;/div&gt;&lt;p style=&quot;margin:0px;margin-top:4px;text-align:center;text-decoration:underline;&quot;&gt;&lt;/p&gt;&lt;hr&gt;&lt;p style=&quot;margin:0px;margin-left:4px;&quot;&gt;+ color: uint8&lt;/p&gt;&lt;p style=&quot;margin:0px;margin-left:4px;&quot;&gt;+ ingroup: bool&lt;br&gt;&lt;/p&gt;&lt;p style=&quot;margin:0px;margin-left:8px;&quot;&gt;&lt;/p&gt;" style="verticalAlign=top;align=left;overflow=fill;fontSize=12;fontFamily=Helvetica;html=1;whiteSpace=wrap;" vertex="1" parent="WIyWlLk6GJQsqaUBKTNV-1">
          <mxGeometry x="790" y="295" width="160" height="80" as="geometry" />
        </mxCell>
        <mxCell id="G242f99MMeTT95p6bvFd-20" value="&lt;p style=&quot;margin:0px;margin-top:4px;text-align:center;&quot;&gt;&lt;b&gt;Ownable&lt;/b&gt;&lt;br&gt;&lt;/p&gt;&lt;div align=&quot;center&quot;&gt;&lt;b&gt;(基于用户地址提供权限管理)&lt;/b&gt;&lt;/div&gt;&lt;p style=&quot;margin:0px;margin-top:4px;text-align:center;text-decoration:underline;&quot;&gt;&lt;/p&gt;&lt;hr&gt;&lt;p style=&quot;margin:0px;margin-left:4px;&quot;&gt;+ Ownable(): void&lt;br&gt;&lt;/p&gt;&lt;p style=&quot;margin:0px;margin-left:4px;&quot;&gt;+ transferOwnership(address): void&lt;br&gt;&lt;/p&gt;&lt;p style=&quot;margin:0px;margin-left:8px;&quot;&gt;&lt;/p&gt;" style="verticalAlign=top;align=left;overflow=fill;fontSize=12;fontFamily=Helvetica;html=1;whiteSpace=wrap;" vertex="1" parent="WIyWlLk6GJQsqaUBKTNV-1">
          <mxGeometry x="790" y="500" width="220" height="80" as="geometry" />
        </mxCell>
        <mxCell id="G242f99MMeTT95p6bvFd-21" value="&lt;p style=&quot;margin:0px;margin-top:4px;text-align:center;&quot;&gt;&lt;b&gt;Pauseable&lt;/b&gt;&lt;br&gt;&lt;/p&gt;&lt;div align=&quot;center&quot;&gt;&lt;b&gt;(提供紧急情况下暂停的能力)&lt;/b&gt;&lt;/div&gt;&lt;p style=&quot;margin:0px;margin-top:4px;text-align:center;text-decoration:underline;&quot;&gt;&lt;/p&gt;&lt;hr&gt;&lt;p style=&quot;margin:0px;margin-left:4px;&quot;&gt;+ pause(): void&lt;br&gt;&lt;/p&gt;&lt;p style=&quot;margin:0px;margin-left:4px;&quot;&gt;+ unpause(): void&lt;br&gt;&lt;/p&gt;&lt;p style=&quot;margin:0px;margin-left:8px;&quot;&gt;&lt;/p&gt;" style="verticalAlign=top;align=left;overflow=fill;fontSize=12;fontFamily=Helvetica;html=1;whiteSpace=wrap;" vertex="1" parent="WIyWlLk6GJQsqaUBKTNV-1">
          <mxGeometry x="790" y="657.5" width="220" height="80" as="geometry" />
        </mxCell>
        <mxCell id="G242f99MMeTT95p6bvFd-22" value="&lt;p style=&quot;margin:0px;margin-top:4px;text-align:center;&quot;&gt;&lt;b&gt;AuctionBase&lt;/b&gt;&lt;br&gt;&lt;/p&gt;&lt;div align=&quot;center&quot;&gt;&lt;b&gt;(提供拍卖基本功能)&lt;/b&gt;&lt;/div&gt;&lt;p style=&quot;margin:0px;margin-top:4px;text-align:center;text-decoration:underline;&quot;&gt;&lt;/p&gt;&lt;hr&gt;&lt;p style=&quot;margin:0px;margin-left:4px;&quot;&gt;+ _escrow(address, uint256): void&lt;br&gt;&lt;/p&gt;&lt;p style=&quot;margin:0px;margin-left:4px;&quot;&gt;+ _transfer(address, uint256): bool&lt;/p&gt;&lt;p style=&quot;margin:0px;margin-left:4px;&quot;&gt;+ _addAuction(uint256, Auction): void&lt;/p&gt;&lt;p style=&quot;margin:0px;margin-left:4px;&quot;&gt;+ _cancelAuction(uint256, address): void&lt;/p&gt;&lt;p style=&quot;margin:0px;margin-left:4px;&quot;&gt;+ _bid(uint256, uint256): void&lt;/p&gt;&lt;p style=&quot;margin:0px;margin-left:4px;&quot;&gt;+ _removeAuction(uint256): void&lt;/p&gt;&lt;p style=&quot;margin:0px;margin-left:4px;&quot;&gt;+ _isOnAuction(): bool&lt;/p&gt;&lt;p style=&quot;margin:0px;margin-left:4px;&quot;&gt;+ _computeCut(uint): unit256&lt;/p&gt;&lt;p style=&quot;margin:0px;margin-left:4px;&quot;&gt;&lt;br&gt;&lt;/p&gt;&lt;p style=&quot;margin:0px;margin-left:8px;&quot;&gt;&lt;/p&gt;" style="verticalAlign=top;align=left;overflow=fill;fontSize=12;fontFamily=Helvetica;html=1;whiteSpace=wrap;" vertex="1" parent="WIyWlLk6GJQsqaUBKTNV-1">
          <mxGeometry x="1120" y="360" width="280" height="170" as="geometry" />
        </mxCell>
        <mxCell id="G242f99MMeTT95p6bvFd-23" value="&lt;p style=&quot;margin:0px;margin-top:4px;text-align:center;&quot;&gt;&lt;b&gt;AuctionDerive&lt;/b&gt;&lt;br&gt;&lt;/p&gt;&lt;div align=&quot;center&quot;&gt;&lt;b&gt;(提供拍卖高级功能)&lt;/b&gt;&lt;/div&gt;&lt;p style=&quot;margin:0px;margin-top:4px;text-align:center;text-decoration:underline;&quot;&gt;&lt;/p&gt;&lt;hr&gt;&lt;p style=&quot;margin:0px;margin-left:4px;&quot;&gt;+ AuctionDerive(address,uint256): void&lt;/p&gt;&lt;p style=&quot;margin:0px;margin-left:4px;&quot;&gt;+ withdrawBalance(): int&lt;/p&gt;&lt;p style=&quot;margin:0px;margin-left:4px;&quot;&gt;+ createAuction(uint256, uint256, address): void&lt;/p&gt;&lt;p style=&quot;margin:0px;margin-left:4px;&quot;&gt;+ bid(uint256): void&lt;/p&gt;&lt;p style=&quot;margin:0px;margin-left:4px;&quot;&gt;+ cancleAuction(uint256): void&amp;nbsp;&lt;/p&gt;&lt;p style=&quot;margin:0px;margin-left:4px;&quot;&gt;+ cancleAuctionWhenPaused(uint256): void&lt;/p&gt;&lt;p style=&quot;margin:0px;margin-left:4px;&quot;&gt;+ getAuction(uint256): void&lt;br&gt;&lt;/p&gt;&lt;p style=&quot;margin:0px;margin-left:8px;&quot;&gt;&lt;/p&gt;" style="verticalAlign=top;align=left;overflow=fill;fontSize=12;fontFamily=Helvetica;html=1;whiteSpace=wrap;" vertex="1" parent="WIyWlLk6GJQsqaUBKTNV-1">
          <mxGeometry x="1120" y="616.25" width="280" height="162.5" as="geometry" />
        </mxCell>
        <mxCell id="G242f99MMeTT95p6bvFd-24" value="&lt;p style=&quot;margin:0px;margin-top:4px;text-align:center;&quot;&gt;&lt;b&gt;SaleAuction&lt;/b&gt;&lt;br&gt;&lt;/p&gt;&lt;div align=&quot;center&quot;&gt;&lt;b&gt;(销售拍卖)&lt;/b&gt;&lt;/div&gt;&lt;p style=&quot;margin:0px;margin-top:4px;text-align:center;text-decoration:underline;&quot;&gt;&lt;/p&gt;&lt;hr&gt;&lt;p style=&quot;margin:0px;margin-left:4px;&quot;&gt;+ createAuction(uint256, uint256,address): void&lt;br&gt;&lt;/p&gt;&lt;p style=&quot;margin:0px;margin-left:4px;&quot;&gt;+ bid(uint256): void&lt;br&gt;&lt;/p&gt;&lt;p style=&quot;margin:0px;margin-left:8px;&quot;&gt;&lt;/p&gt;" style="verticalAlign=top;align=left;overflow=fill;fontSize=12;fontFamily=Helvetica;html=1;whiteSpace=wrap;" vertex="1" parent="WIyWlLk6GJQsqaUBKTNV-1">
          <mxGeometry x="790" y="830" width="270" height="80" as="geometry" />
        </mxCell>
        <mxCell id="G242f99MMeTT95p6bvFd-25" value="" style="endArrow=block;endSize=10;endFill=0;shadow=0;strokeWidth=1;rounded=0;edgeStyle=elbowEdgeStyle;elbow=vertical;exitX=0.5;exitY=0;exitDx=0;exitDy=0;entryX=0.5;entryY=1;entryDx=0;entryDy=0;" edge="1" parent="WIyWlLk6GJQsqaUBKTNV-1" source="G242f99MMeTT95p6bvFd-21" target="G242f99MMeTT95p6bvFd-20">
          <mxGeometry width="160" relative="1" as="geometry">
            <mxPoint x="1080" y="645" as="sourcePoint" />
            <mxPoint x="1080" y="545" as="targetPoint" />
          </mxGeometry>
        </mxCell>
        <mxCell id="G242f99MMeTT95p6bvFd-31" value="" style="endArrow=block;endSize=10;endFill=0;shadow=0;strokeWidth=1;rounded=0;elbow=vertical;entryX=0.5;entryY=1;entryDx=0;entryDy=0;exitX=1;exitY=0.5;exitDx=0;exitDy=0;edgeStyle=orthogonalEdgeStyle;" edge="1" parent="WIyWlLk6GJQsqaUBKTNV-1" source="G242f99MMeTT95p6bvFd-24" target="G242f99MMeTT95p6bvFd-23">
          <mxGeometry width="160" relative="1" as="geometry">
            <mxPoint x="1130" y="950" as="sourcePoint" />
            <mxPoint x="1160" y="880" as="targetPoint" />
          </mxGeometry>
        </mxCell>
        <mxCell id="G242f99MMeTT95p6bvFd-32" value="" style="endArrow=block;endSize=10;endFill=0;shadow=0;strokeWidth=1;rounded=0;elbow=vertical;entryX=1;entryY=0.5;entryDx=0;entryDy=0;exitX=0;exitY=0.5;exitDx=0;exitDy=0;edgeStyle=orthogonalEdgeStyle;" edge="1" parent="WIyWlLk6GJQsqaUBKTNV-1" source="G242f99MMeTT95p6bvFd-23" target="G242f99MMeTT95p6bvFd-21">
          <mxGeometry width="160" relative="1" as="geometry">
            <mxPoint x="1090" y="600" as="sourcePoint" />
            <mxPoint x="1090" y="500" as="targetPoint" />
          </mxGeometry>
        </mxCell>
        <mxCell id="G242f99MMeTT95p6bvFd-33" value="" style="endArrow=diamondThin;endFill=0;endSize=24;html=1;rounded=0;entryX=0.5;entryY=0;entryDx=0;entryDy=0;exitX=0.5;exitY=1;exitDx=0;exitDy=0;edgeStyle=orthogonalEdgeStyle;" edge="1" parent="WIyWlLk6GJQsqaUBKTNV-1" source="G242f99MMeTT95p6bvFd-8" target="G242f99MMeTT95p6bvFd-22">
          <mxGeometry width="160" relative="1" as="geometry">
            <mxPoint x="940" y="200" as="sourcePoint" />
            <mxPoint x="1100" y="200" as="targetPoint" />
          </mxGeometry>
        </mxCell>
        <mxCell id="G242f99MMeTT95p6bvFd-34" value="" style="endArrow=diamondThin;endFill=0;endSize=24;html=1;rounded=0;entryX=1;entryY=0.5;entryDx=0;entryDy=0;exitX=0;exitY=0.5;exitDx=0;exitDy=0;edgeStyle=orthogonalEdgeStyle;" edge="1" parent="WIyWlLk6GJQsqaUBKTNV-1" source="G242f99MMeTT95p6bvFd-19" target="G242f99MMeTT95p6bvFd-15">
          <mxGeometry width="160" relative="1" as="geometry">
            <mxPoint x="750" y="440" as="sourcePoint" />
            <mxPoint x="910" y="440" as="targetPoint" />
          </mxGeometry>
        </mxCell>
        <mxCell id="G242f99MMeTT95p6bvFd-38" value="" style="html=1;verticalAlign=bottom;endArrow=open;dashed=1;endSize=8;curved=0;rounded=0;exitX=1;exitY=0.5;exitDx=0;exitDy=0;entryX=0;entryY=0.5;entryDx=0;entryDy=0;" edge="1" parent="WIyWlLk6GJQsqaUBKTNV-1" source="G242f99MMeTT95p6bvFd-10" target="G242f99MMeTT95p6bvFd-24">
          <mxGeometry relative="1" as="geometry">
            <mxPoint x="860" y="990" as="sourcePoint" />
            <mxPoint x="780" y="990" as="targetPoint" />
          </mxGeometry>
        </mxCell>
        <mxCell id="G242f99MMeTT95p6bvFd-40" value="" style="endArrow=block;endSize=10;endFill=0;shadow=0;strokeWidth=1;rounded=0;edgeStyle=elbowEdgeStyle;elbow=vertical;exitX=0.5;exitY=0;exitDx=0;exitDy=0;entryX=0.5;entryY=1;entryDx=0;entryDy=0;" edge="1" parent="WIyWlLk6GJQsqaUBKTNV-1" source="G242f99MMeTT95p6bvFd-15" target="G242f99MMeTT95p6bvFd-18">
          <mxGeometry width="160" relative="1" as="geometry">
            <mxPoint x="480" y="300" as="sourcePoint" />
            <mxPoint x="480" y="230" as="targetPoint" />
          </mxGeometry>
        </mxCell>
        <mxCell id="G242f99MMeTT95p6bvFd-41" value="" style="html=1;verticalAlign=bottom;endArrow=open;dashed=1;endSize=8;curved=0;rounded=0;exitX=0;exitY=0.5;exitDx=0;exitDy=0;entryX=1;entryY=0.5;entryDx=0;entryDy=0;" edge="1" parent="WIyWlLk6GJQsqaUBKTNV-1" source="G242f99MMeTT95p6bvFd-6" target="G242f99MMeTT95p6bvFd-13">
          <mxGeometry relative="1" as="geometry">
            <mxPoint x="470" y="630" as="sourcePoint" />
            <mxPoint x="390" y="630" as="targetPoint" />
          </mxGeometry>
        </mxCell>
      </root>
    </mxGraphModel>
  </diagram>
</mxfile>
